<?xml version="1.0" encoding="UTF-8"?>
<!--Generator: Apple Native CoreSVG 232.5-->
<!DOCTYPE svg
PUBLIC "-//W3C//DTD SVG 1.1//EN"
       "http://www.w3.org/Graphics/SVG/1.1/DTD/svg11.dtd">
<svg version="1.1" xmlns="http://www.w3.org/2000/svg" xmlns:xlink="http://www.w3.org/1999/xlink" width="43.7538" height="44.2383">
 <g>
  <rect height="44.2383" opacity="0" width="43.7538" x="0" y="0"/>
  <path d="M8.32219 41.0938C9.12297 41.7188 10.1386 41.5039 11.3495 40.625L21.6816 33.0273L32.0331 40.625C33.2441 41.5039 34.2402 41.7188 35.0605 41.0938C35.8613 40.4883 36.037 39.4922 35.5488 38.0664L31.4667 25.918L41.8964 18.418C43.1073 17.5586 43.5956 16.6602 43.2831 15.6836C42.9706 14.7461 42.0527 14.2773 40.5488 14.2969L27.7558 14.375L23.8691 2.16797C23.4003 0.722656 22.6972 0 21.6816 0C20.6855 0 19.9823 0.722656 19.5136 2.16797L15.6269 14.375L2.83391 14.2969C1.33 14.2773 0.412034 14.7461 0.0995335 15.6836C-0.232498 16.6602 0.275315 17.5586 1.48625 18.418L11.9159 25.918L7.83391 38.0664C7.34563 39.4922 7.52141 40.4883 8.32219 41.0938ZM11.1347 37.2266C11.0956 37.1875 11.1152 37.168 11.1347 37.0508L15.0214 25.8789C15.2948 25.1172 15.1386 24.5117 14.455 24.043L4.72844 17.3242C4.63078 17.2656 4.61125 17.2266 4.63078 17.168C4.65031 17.1094 4.68938 17.1094 4.80656 17.1094L16.623 17.3242C17.4238 17.3438 17.9316 17.0117 18.1855 16.2109L21.5839 4.90234C21.6034 4.78516 21.6425 4.74609 21.6816 4.74609C21.7402 4.74609 21.7792 4.78516 21.7988 4.90234L25.1972 16.2109C25.4511 17.0117 25.9589 17.3438 26.7597 17.3242L38.5761 17.1094C38.6933 17.1094 38.7323 17.1094 38.7519 17.168C38.7714 17.2266 38.7323 17.2656 38.6542 17.3242L28.9277 24.043C28.2441 24.5117 28.0878 25.1172 28.3613 25.8789L32.248 37.0508C32.2675 37.168 32.287 37.1875 32.248 37.2266C32.2089 37.2852 32.1503 37.2461 32.0722 37.1875L22.6777 30.0195C22.0527 29.5312 21.33 29.5312 20.705 30.0195L11.3105 37.1875C11.2323 37.2461 11.1738 37.2852 11.1347 37.2266Z" fill="#000000" fill-opacity="0.85"/>
 </g>
</svg>
